<?xml version="1.0" standalone="no"?>
<!DOCTYPE svg PUBLIC "-//W3C//DTD SVG 20010904//EN"
 "http://www.w3.org/TR/2001/REC-SVG-20010904/DTD/svg10.dtd">
<svg version="1.0" xmlns="http://www.w3.org/2000/svg"
 width="486.000000pt" height="201.000000pt" viewBox="0 0 486.000000 201.000000"
 preserveAspectRatio="xMidYMid meet">

<g transform="translate(0.000000,201.000000) scale(0.100000,-0.100000)"
fill="#000000" stroke="none">
<path d="M869 1926 c-145 -135 -521 -266 -764 -266 l-88 0 6 -157 c18 -454
216 -905 536 -1221 137 -134 338 -271 380 -257 34 10 172 105 252 171 218 181
411 463 525 763 65 170 114 435 114 610 l0 87 -104 2 c-266 3 -647 146 -776
292 l-25 28 -56 -52z m11 -951 l0 -836 -47 32 c-399 270 -694 799 -720 1290
l-6 106 74 7 c109 10 291 53 399 93 98 37 230 100 265 127 11 8 23 16 28 16 4
0 7 -376 7 -835z m315 719 c20 -8 36 -17 34 -18 -8 -7 -243 -106 -251 -106 -4
0 -8 15 -8 33 0 32 2 34 88 69 48 20 90 37 93 37 4 1 23 -6 44 -15z m328 -103
c6 -6 -527 -241 -547 -241 -3 0 -6 15 -6 34 l0 33 223 96 c205 89 226 96 272
91 28 -3 54 -9 58 -13z m217 -104 l0 -33 -368 -156 c-202 -87 -376 -160 -385
-164 -14 -5 -17 0 -17 29 l0 35 278 118 c152 64 322 137 377 160 55 24 103 43
108 44 4 0 7 -15 7 -33z m-34 -229 c-3 -18 -10 -35 -14 -39 -5 -5 -606 -264
-710 -306 -10 -4 -13 4 -10 32 l3 37 360 154 c198 84 364 153 369 154 5 0 6
-14 2 -32z m-68 -257 c-12 -29 -36 -41 -338 -171 l-325 -139 -3 31 c-2 17 0
34 5 38 17 17 668 288 671 280 2 -4 -3 -22 -10 -39z m-120 -263 c-23 -43 -26
-44 -283 -154 l-260 -111 -3 34 c-2 19 -2 36 0 37 14 10 546 234 556 235 9 1
6 -12 -10 -41z m-208 -307 c-23 -27 -47 -52 -53 -54 -7 -3 -74 -32 -149 -65
l-138 -61 0 38 0 37 183 76 c100 42 186 77 190 77 5 1 -11 -21 -33 -48z"/>
<path d="M2239 1714 c-61 -18 -136 -86 -165 -149 -48 -103 -25 -235 56 -315
56 -57 118 -80 214 -80 199 0 327 173 272 365 -14 45 -29 69 -69 109 -81 80
-193 106 -308 70z m182 -49 c124 -44 184 -192 128 -315 -27 -60 -45 -79 -104
-106 -163 -77 -338 28 -339 201 0 168 155 276 315 220z"/>
<path d="M2760 1451 l0 -281 30 0 30 0 0 90 0 90 98 0 97 0 63 -90 c55 -79 66
-90 93 -90 35 0 36 -2 -45 111 l-55 76 36 24 c71 47 97 110 81 197 -10 59 -39
96 -95 123 -41 20 -67 24 -190 27 l-143 5 0 -282z m309 205 c92 -48 92 -189 0
-238 -27 -14 -56 -18 -141 -18 l-108 0 0 141 0 142 109 -6 c70 -3 120 -11 140
-21z"/>
<path d="M3340 1450 l0 -282 173 4 c154 3 176 5 213 25 102 54 96 202 -9 248
l-28 12 25 16 c60 40 73 141 25 194 -43 46 -82 56 -246 61 l-153 4 0 -282z
m293 219 c54 -15 77 -41 77 -88 0 -28 -7 -49 -24 -68 -24 -28 -25 -28 -160
-31 l-136 -4 0 95 c0 51 3 97 7 100 10 11 194 8 236 -4z m22 -249 c51 -12 85
-50 85 -96 0 -85 -40 -104 -220 -104 l-130 0 0 98 c0 54 3 102 7 105 10 10
212 8 258 -3z"/>
<path d="M3979 1459 c-68 -149 -125 -275 -127 -280 -2 -5 10 -9 26 -9 27 0 32
6 63 75 l33 75 155 0 156 0 34 -75 c31 -69 36 -75 63 -75 16 0 28 4 26 9 -1 4
-59 130 -127 280 -118 256 -126 271 -151 271 -26 0 -34 -14 -151 -271z m221
52 c33 -74 60 -136 60 -137 0 -2 -59 -4 -131 -4 -76 0 -129 4 -127 9 23 65
125 278 130 273 4 -4 34 -67 68 -141z"/>
<path d="M4390 1705 c0 -25 0 -25 95 -25 l95 0 0 -157 c0 -87 3 -202 7 -255 6
-94 7 -98 30 -98 l23 0 0 255 0 255 101 0 c98 0 100 0 97 23 -3 22 -3 22 -225
25 l-223 2 0 -25z"/>
<path d="M3790 735 l0 -45 -40 0 c-36 0 -40 -2 -40 -25 0 -22 4 -25 39 -25
l40 0 3 -161 3 -161 28 -24 c22 -19 39 -24 80 -24 29 1 62 6 75 13 19 11 20
15 10 30 -11 15 -18 16 -44 7 -40 -14 -81 1 -94 35 -6 15 -10 85 -10 156 l0
129 65 0 c63 0 65 1 65 25 0 24 -2 25 -65 25 l-65 0 0 45 c0 41 -2 45 -25 45
-23 0 -25 -4 -25 -45z"/>
<path d="M2165 671 c-191 -86 -147 -382 60 -399 77 -6 120 4 160 40 28 24 33
33 24 44 -16 19 -22 18 -65 -11 -76 -51 -186 -25 -227 55 -25 49 -19 135 12
179 52 72 171 82 237 20 20 -19 21 -19 37 -1 16 17 16 20 -6 40 -55 52 -158
67 -232 33z"/>
<path d="M2530 480 l0 -210 24 0 c24 0 24 1 28 133 5 174 28 219 121 234 31 5
37 10 37 29 0 19 -5 24 -24 24 -37 0 -78 -18 -108 -48 l-28 -26 0 37 c0 33 -3
37 -25 37 l-25 0 0 -210z"/>
<path d="M2915 671 c-22 -10 -50 -29 -62 -42 -73 -80 -69 -235 8 -306 74 -68
230 -71 301 -6 17 15 17 18 2 34 -15 16 -17 16 -51 -7 -27 -18 -49 -24 -92
-24 -88 0 -142 38 -166 118 l-6 22 175 0 176 0 0 38 c-1 139 -155 233 -285
173z m162 -51 c36 -22 58 -52 68 -92 l7 -28 -152 0 -152 0 7 28 c23 96 138
144 222 92z"/>
<path d="M3356 674 c-61 -22 -74 -36 -58 -62 7 -10 18 -8 53 7 48 22 125 27
162 10 29 -13 44 -36 52 -81 l7 -35 -104 -5 c-123 -7 -163 -23 -185 -75 -37
-90 27 -163 142 -163 59 0 85 9 123 43 l22 20 0 -31 c0 -27 4 -32 25 -32 l25
0 0 159 c0 148 -1 160 -23 192 -12 19 -38 42 -57 51 -42 22 -129 22 -184 2z
m214 -248 c0 -84 -117 -144 -199 -101 -46 23 -56 80 -21 115 17 17 33 20 120
20 l100 0 0 -34z"/>
<path d="M4170 674 c-82 -36 -124 -100 -124 -194 0 -124 72 -201 194 -208 75
-5 124 14 172 65 36 38 48 73 48 144 0 93 -42 160 -122 194 -47 19 -122 19
-168 -1z m160 -52 c69 -34 101 -148 61 -222 -57 -108 -218 -108 -274 0 -25 49
-19 135 12 179 42 59 131 78 201 43z"/>
<path d="M4580 480 l0 -210 30 0 30 0 0 131 c0 176 20 217 114 234 29 6 36 12
36 31 0 18 -5 24 -22 24 -33 -1 -104 -35 -117 -57 -9 -15 -10 -12 -11 20 0 34
-2 37 -30 37 l-30 0 0 -210z"/>
</g>
</svg>
